<?xml version="1.0" encoding="UTF-8"?>
<svg id="Layer_2" data-name="Layer 2" xmlns="http://www.w3.org/2000/svg" xmlns:xlink="http://www.w3.org/1999/xlink" viewBox="0 0 103.25 48.05">
  <defs>
    <style>
      .cls-1 {
        fill: url(#linear-gradient-2);
      }

      .cls-2 {
        fill: #8b5cf6;
      }

      .cls-3 {
        fill: #7562ab;
      }

      .cls-4 {
        fill: url(#linear-gradient);
      }
    </style>
    <linearGradient id="linear-gradient" x1="21.73" y1="32.35" x2="48.04" y2="11.94" gradientUnits="userSpaceOnUse">
      <stop offset="0" stop-color="#8b5cf6"/>
      <stop offset="1" stop-color="#231f20"/>
    </linearGradient>
    <linearGradient id="linear-gradient-2" x1="79.09" y1="18.24" x2="59.33" y2="38.26" xlink:href="#linear-gradient"/>
  </defs>
  <g id="Layer_2-2" data-name="Layer 2">
    <g>
      <path class="cls-3" d="m84.44.49C82.9.17,81.31,0,79.69,0,66.74,0,56.93,8.96,51.63,15.32,46.32,8.96,36.53,0,23.57,0S0,10.78,0,24.02c0,3.95.94,7.69,2.61,10.98,3.92,7.75,11.83,13.05,20.96,13.05,12.96,0,22.75-8.96,28.06-15.32,5.3,6.36,15.11,15.32,28.06,15.32s23.14-10.35,23.54-23.24c.02-.25.02-.52.02-.79,0-11.59-8.09-21.29-18.81-23.53ZM23.57,37.98c-3.14,0-6.03-1.12-8.31-2.98-3.16-2.55-5.18-6.53-5.18-10.98,0-7.69,6.05-13.95,13.49-13.95,10.44,0,18.65,9.32,22.09,13.95-3.44,4.65-11.65,13.96-22.09,13.96Zm56.12,0c-10.44,0-18.65-9.31-22.08-13.96,3.43-4.63,11.64-13.95,22.08-13.95,1.67,0,3.27.32,4.75.9,5.1,1.98,8.74,7.08,8.74,13.05,0,.27-.01.54-.02.79-.41,7.34-6.28,13.17-13.47,13.17Z"/>
      <path class="cls-2" d="m103.23,24.82c-.4,12.88-10.8,23.24-23.54,23.24s-22.76-8.97-28.06-15.32c-2.73-3.27-4.28-5.84-4.46-6.15l-1.51-2.56c-3.45-4.63-11.65-13.95-22.1-13.95-7.43,0-13.49,6.26-13.49,13.95H0C0,10.78,10.57,0,23.57,0s22.76,8.97,28.06,15.32c2.74,3.27,4.29,5.84,4.47,6.15l1.51,2.55c3.44,4.65,11.64,13.96,22.09,13.96,7.19,0,13.06-5.83,13.47-13.16h10.07Z"/>
      <path class="cls-4" d="m51.63,32.73c-5.31,6.36-15.1,15.32-28.06,15.32-9.12,0-17.04-5.31-20.95-13.05C.94,31.71,0,27.97,0,24.02h10.07c0,4.46,2.03,8.43,5.18,10.98,2.28,1.86,5.17,2.98,8.31,2.98,10.44,0,18.65-9.31,22.1-13.96l1.51,2.56c.18.3,1.72,2.88,4.46,6.15Z"/>
      <path class="cls-1" d="m103.25,24.02c0,.27,0,.54-.02.79h-10.07c.01-.26.02-.53.02-.79,0-5.97-3.64-11.07-8.74-13.05-1.48-.58-3.08-.9-4.75-.9-10.44,0-18.65,9.31-22.09,13.95l-1.51-2.55c-.18-.3-1.72-2.88-4.47-6.15,5.31-6.36,15.11-15.32,28.06-15.32,1.62,0,3.21.17,4.75.49,10.72,2.24,18.82,11.94,18.82,23.53Z"/>
    </g>
  </g>
</svg>